<svg class="rich-terminal" viewBox="0 0 2324 489.2" xmlns="http://www.w3.org/2000/svg">
    <!-- Generated with Rich https://www.textualize.io -->
    <style>

    @font-face {
        font-family: "Fira Code";
        src: local("FiraCode-Regular"),
                url("https://cdnjs.cloudflare.com/ajax/libs/firacode/6.2.0/woff2/FiraCode-Regular.woff2") format("woff2"),
                url("https://cdnjs.cloudflare.com/ajax/libs/firacode/6.2.0/woff/FiraCode-Regular.woff") format("woff");
        font-style: normal;
        font-weight: 400;
    }
    @font-face {
        font-family: "Fira Code";
        src: local("FiraCode-Bold"),
                url("https://cdnjs.cloudflare.com/ajax/libs/firacode/6.2.0/woff2/FiraCode-Bold.woff2") format("woff2"),
                url("https://cdnjs.cloudflare.com/ajax/libs/firacode/6.2.0/woff/FiraCode-Bold.woff") format("woff");
        font-style: bold;
        font-weight: 700;
    }

    .terminal-2231160305-matrix {
        font-family: Fira Code, monospace;
        font-size: 20px;
        line-height: 24.4px;
        font-variant-east-asian: full-width;
    }

    .terminal-2231160305-title {
        font-size: 18px;
        font-weight: bold;
        font-family: arial;
    }

    .terminal-2231160305-r1 { fill: #c5c8c6 }
.terminal-2231160305-r2 { fill: #e3e3e3 }
.terminal-2231160305-r3 { fill: #e1e1e1 }
.terminal-2231160305-r4 { fill: #14191f }
.terminal-2231160305-r5 { fill: #e2e2e2 }
.terminal-2231160305-r6 { fill: #004578 }
.terminal-2231160305-r7 { fill: #262626 }
.terminal-2231160305-r8 { fill: #e2e2e2;font-weight: bold;text-decoration: underline; }
.terminal-2231160305-r9 { fill: #dde8f3;font-weight: bold }
.terminal-2231160305-r10 { fill: #ddedf9 }
.terminal-2231160305-r11 { fill: #fef3e3;font-weight: bold }
.terminal-2231160305-r12 { fill: #ddeaf6 }
    </style>

    <defs>
    <clipPath id="terminal-2231160305-clip-terminal">
      <rect x="0" y="0" width="2304.7999999999997" height="438.2" />
    </clipPath>
    <clipPath id="terminal-2231160305-line-0">
    <rect x="0" y="1.5" width="2305.8" height="24.65"/>
            </clipPath>
<clipPath id="terminal-2231160305-line-1">
    <rect x="0" y="25.9" width="2305.8" height="24.65"/>
            </clipPath>
<clipPath id="terminal-2231160305-line-2">
    <rect x="0" y="50.3" width="2305.8" height="24.65"/>
            </clipPath>
<clipPath id="terminal-2231160305-line-3">
    <rect x="0" y="74.7" width="2305.8" height="24.65"/>
            </clipPath>
<clipPath id="terminal-2231160305-line-4">
    <rect x="0" y="99.1" width="2305.8" height="24.65"/>
            </clipPath>
<clipPath id="terminal-2231160305-line-5">
    <rect x="0" y="123.5" width="2305.8" height="24.65"/>
            </clipPath>
<clipPath id="terminal-2231160305-line-6">
    <rect x="0" y="147.9" width="2305.8" height="24.65"/>
            </clipPath>
<clipPath id="terminal-2231160305-line-7">
    <rect x="0" y="172.3" width="2305.8" height="24.65"/>
            </clipPath>
<clipPath id="terminal-2231160305-line-8">
    <rect x="0" y="196.7" width="2305.8" height="24.65"/>
            </clipPath>
<clipPath id="terminal-2231160305-line-9">
    <rect x="0" y="221.1" width="2305.8" height="24.65"/>
            </clipPath>
<clipPath id="terminal-2231160305-line-10">
    <rect x="0" y="245.5" width="2305.8" height="24.65"/>
            </clipPath>
<clipPath id="terminal-2231160305-line-11">
    <rect x="0" y="269.9" width="2305.8" height="24.65"/>
            </clipPath>
<clipPath id="terminal-2231160305-line-12">
    <rect x="0" y="294.3" width="2305.8" height="24.65"/>
            </clipPath>
<clipPath id="terminal-2231160305-line-13">
    <rect x="0" y="318.7" width="2305.8" height="24.65"/>
            </clipPath>
<clipPath id="terminal-2231160305-line-14">
    <rect x="0" y="343.1" width="2305.8" height="24.65"/>
            </clipPath>
<clipPath id="terminal-2231160305-line-15">
    <rect x="0" y="367.5" width="2305.8" height="24.65"/>
            </clipPath>
<clipPath id="terminal-2231160305-line-16">
    <rect x="0" y="391.9" width="2305.8" height="24.65"/>
            </clipPath>
    </defs>

    <rect fill="#292929" stroke="rgba(255,255,255,0.35)" stroke-width="1" x="1" y="1" width="2322" height="487.2" rx="8"/><text class="terminal-2231160305-title" fill="#c5c8c6" text-anchor="middle" x="1161" y="27">Textual&#160;Demo</text>
            <g transform="translate(26,22)">
            <circle cx="0" cy="0" r="7" fill="#ff5f57"/>
            <circle cx="22" cy="0" r="7" fill="#febc2e"/>
            <circle cx="44" cy="0" r="7" fill="#28c840"/>
            </g>
        
    <g transform="translate(9, 41)" clip-path="url(#terminal-2231160305-clip-terminal)">
    <rect fill="#282828" x="0" y="1.5" width="12.2" height="24.65" shape-rendering="crispEdges"/><rect fill="#282828" x="12.2" y="1.5" width="12.2" height="24.65" shape-rendering="crispEdges"/><rect fill="#282828" x="24.4" y="1.5" width="61" height="24.65" shape-rendering="crispEdges"/><rect fill="#282828" x="85.4" y="1.5" width="12.2" height="24.65" shape-rendering="crispEdges"/><rect fill="#282828" x="97.6" y="1.5" width="963.8" height="24.65" shape-rendering="crispEdges"/><rect fill="#282828" x="1061.4" y="1.5" width="146.4" height="24.65" shape-rendering="crispEdges"/><rect fill="#282828" x="1207.8" y="1.5" width="976" height="24.65" shape-rendering="crispEdges"/><rect fill="#282828" x="2183.8" y="1.5" width="12.2" height="24.65" shape-rendering="crispEdges"/><rect fill="#282828" x="2196" y="1.5" width="0" height="24.65" shape-rendering="crispEdges"/><rect fill="#282828" x="2196" y="1.5" width="97.6" height="24.65" shape-rendering="crispEdges"/><rect fill="#282828" x="2293.6" y="1.5" width="12.2" height="24.65" shape-rendering="crispEdges"/><rect fill="#1e1e1e" x="0" y="25.9" width="0" height="24.65" shape-rendering="crispEdges"/><rect fill="#1e1e1e" x="0" y="25.9" width="366" height="24.65" shape-rendering="crispEdges"/><rect fill="#1e1e1e" x="366" y="25.9" width="0" height="24.65" shape-rendering="crispEdges"/><rect fill="#1e1e1e" x="366" y="25.9" width="1915.4" height="24.65" shape-rendering="crispEdges"/><rect fill="#23568b" x="2281.4" y="25.9" width="24.4" height="24.65" shape-rendering="crispEdges"/><rect fill="#1e1e1e" x="0" y="50.3" width="12.2" height="24.65" shape-rendering="crispEdges"/><rect fill="#262626" x="12.2" y="50.3" width="353.8" height="24.65" shape-rendering="crispEdges"/><rect fill="#1e1e1e" x="366" y="50.3" width="1915.4" height="24.65" shape-rendering="crispEdges"/><rect fill="#23568b" x="2281.4" y="50.3" width="24.4" height="24.65" shape-rendering="crispEdges"/><rect fill="#1e1e1e" x="0" y="74.7" width="12.2" height="24.65" shape-rendering="crispEdges"/><rect fill="#262626" x="12.2" y="74.7" width="24.4" height="24.65" shape-rendering="crispEdges"/><rect fill="#262626" x="36.6" y="74.7" width="134.2" height="24.65" shape-rendering="crispEdges"/><rect fill="#262626" x="170.8" y="74.7" width="36.6" height="24.65" shape-rendering="crispEdges"/><rect fill="#262626" x="207.4" y="74.7" width="134.2" height="24.65" shape-rendering="crispEdges"/><rect fill="#262626" x="341.6" y="74.7" width="24.4" height="24.65" shape-rendering="crispEdges"/><rect fill="#1e1e1e" x="366" y="74.7" width="341.6" height="24.65" shape-rendering="crispEdges"/><rect fill="#1e1e1e" x="707.6" y="74.7" width="12.2" height="24.65" shape-rendering="crispEdges"/><rect fill="#1e1e1e" x="719.8" y="74.7" width="1195.6" height="24.65" shape-rendering="crispEdges"/><rect fill="#1e1e1e" x="1915.4" y="74.7" width="12.2" height="24.65" shape-rendering="crispEdges"/><rect fill="#1e1e1e" x="1927.6" y="74.7" width="353.8" height="24.65" shape-rendering="crispEdges"/><rect fill="#14191f" x="2281.4" y="74.7" width="24.4" height="24.65" shape-rendering="crispEdges"/><rect fill="#1e1e1e" x="0" y="99.1" width="12.2" height="24.65" shape-rendering="crispEdges"/><rect fill="#262626" x="12.2" y="99.1" width="353.8" height="24.65" shape-rendering="crispEdges"/><rect fill="#1e1e1e" x="366" y="99.1" width="341.6" height="24.65" shape-rendering="crispEdges"/><rect fill="#262626" x="707.6" y="99.1" width="12.2" height="24.65" shape-rendering="crispEdges"/><rect fill="#262626" x="719.8" y="99.1" width="1195.6" height="24.65" shape-rendering="crispEdges"/><rect fill="#004578" x="1915.4" y="99.1" width="12.2" height="24.65" shape-rendering="crispEdges"/><rect fill="#1e1e1e" x="1927.6" y="99.1" width="353.8" height="24.65" shape-rendering="crispEdges"/><rect fill="#14191f" x="2281.4" y="99.1" width="24.4" height="24.65" shape-rendering="crispEdges"/><rect fill="#1e1e1e" x="0" y="123.5" width="366" height="24.65" shape-rendering="crispEdges"/><rect fill="#1e1e1e" x="366" y="123.5" width="341.6" height="24.65" shape-rendering="crispEdges"/><rect fill="#262626" x="707.6" y="123.5" width="12.2" height="24.65" shape-rendering="crispEdges"/><rect fill="#262626" x="719.8" y="123.5" width="24.4" height="24.65" shape-rendering="crispEdges"/><rect fill="#262626" x="744.2" y="123.5" width="0" height="24.65" shape-rendering="crispEdges"/><rect fill="#262626" x="744.2" y="123.5" width="1146.8" height="24.65" shape-rendering="crispEdges"/><rect fill="#262626" x="1891" y="123.5" width="24.4" height="24.65" shape-rendering="crispEdges"/><rect fill="#004578" x="1915.4" y="123.5" width="12.2" height="24.65" shape-rendering="crispEdges"/><rect fill="#1e1e1e" x="1927.6" y="123.5" width="353.8" height="24.65" shape-rendering="crispEdges"/><rect fill="#14191f" x="2281.4" y="123.5" width="24.4" height="24.65" shape-rendering="crispEdges"/><rect fill="#1e1e1e" x="0" y="147.9" width="12.2" height="24.65" shape-rendering="crispEdges"/><rect fill="#262626" x="12.2" y="147.9" width="353.8" height="24.65" shape-rendering="crispEdges"/><rect fill="#1e1e1e" x="366" y="147.9" width="341.6" height="24.65" shape-rendering="crispEdges"/><rect fill="#262626" x="707.6" y="147.9" width="12.2" height="24.65" shape-rendering="crispEdges"/><rect fill="#262626" x="719.8" y="147.9" width="24.4" height="24.65" shape-rendering="crispEdges"/><rect fill="#262626" x="744.2" y="147.9" width="500.2" height="24.65" shape-rendering="crispEdges"/><rect fill="#262626" x="1244.4" y="147.9" width="146.4" height="24.65" shape-rendering="crispEdges"/><rect fill="#262626" x="1390.8" y="147.9" width="500.2" height="24.65" shape-rendering="crispEdges"/><rect fill="#262626" x="1891" y="147.9" width="24.4" height="24.65" shape-rendering="crispEdges"/><rect fill="#004578" x="1915.4" y="147.9" width="12.2" height="24.65" shape-rendering="crispEdges"/><rect fill="#1e1e1e" x="1927.6" y="147.9" width="353.8" height="24.65" shape-rendering="crispEdges"/><rect fill="#14191f" x="2281.4" y="147.9" width="24.4" height="24.65" shape-rendering="crispEdges"/><rect fill="#1e1e1e" x="0" y="172.3" width="12.2" height="24.65" shape-rendering="crispEdges"/><rect fill="#262626" x="12.2" y="172.3" width="24.4" height="24.65" shape-rendering="crispEdges"/><rect fill="#262626" x="36.6" y="172.3" width="109.8" height="24.65" shape-rendering="crispEdges"/><rect fill="#262626" x="146.4" y="172.3" width="85.4" height="24.65" shape-rendering="crispEdges"/><rect fill="#262626" x="231.8" y="172.3" width="109.8" height="24.65" shape-rendering="crispEdges"/><rect fill="#262626" x="341.6" y="172.3" width="24.4" height="24.65" shape-rendering="crispEdges"/><rect fill="#1e1e1e" x="366" y="172.3" width="341.6" height="24.65" shape-rendering="crispEdges"/><rect fill="#262626" x="707.6" y="172.3" width="12.2" height="24.65" shape-rendering="crispEdges"/><rect fill="#262626" x="719.8" y="172.3" width="24.4" height="24.65" shape-rendering="crispEdges"/><rect fill="#262626" x="744.2" y="172.3" width="1146.8" height="24.65" shape-rendering="crispEdges"/><rect fill="#262626" x="1891" y="172.3" width="24.4" height="24.65" shape-rendering="crispEdges"/><rect fill="#004578" x="1915.4" y="172.3" width="12.2" height="24.65" shape-rendering="crispEdges"/><rect fill="#1e1e1e" x="1927.6" y="172.3" width="353.8" height="24.65" shape-rendering="crispEdges"/><rect fill="#14191f" x="2281.4" y="172.3" width="24.4" height="24.65" shape-rendering="crispEdges"/><rect fill="#1e1e1e" x="0" y="196.7" width="12.2" height="24.65" shape-rendering="crispEdges"/><rect fill="#1e1e1e" x="12.2" y="196.7" width="353.8" height="24.65" shape-rendering="crispEdges"/><rect fill="#1e1e1e" x="366" y="196.7" width="341.6" height="24.65" shape-rendering="crispEdges"/><rect fill="#1e1e1e" x="707.6" y="196.7" width="36.6" height="24.65" shape-rendering="crispEdges"/><rect fill="#1e1e1e" x="744.2" y="196.7" width="1146.8" height="24.65" shape-rendering="crispEdges"/><rect fill="#1e1e1e" x="1891" y="196.7" width="36.6" height="24.65" shape-rendering="crispEdges"/><rect fill="#1e1e1e" x="1927.6" y="196.7" width="353.8" height="24.65" shape-rendering="crispEdges"/><rect fill="#1e1e1e" x="2281.4" y="196.7" width="24.4" height="24.65" shape-rendering="crispEdges"/><rect fill="#1e1e1e" x="0" y="221.1" width="12.2" height="24.65" shape-rendering="crispEdges"/><rect fill="#1e1e1e" x="12.2" y="221.1" width="329.4" height="24.65" shape-rendering="crispEdges"/><rect fill="#1e1e1e" x="341.6" y="221.1" width="24.4" height="24.65" shape-rendering="crispEdges"/><rect fill="#1e1e1e" x="366" y="221.1" width="341.6" height="24.65" shape-rendering="crispEdges"/><rect fill="#1e1e1e" x="707.6" y="221.1" width="1220" height="24.65" shape-rendering="crispEdges"/><rect fill="#1e1e1e" x="1927.6" y="221.1" width="341.6" height="24.65" shape-rendering="crispEdges"/><rect fill="#14191f" x="2269.2" y="221.1" width="12.2" height="24.65" shape-rendering="crispEdges"/><rect fill="#14191f" x="2281.4" y="221.1" width="12.2" height="24.65" shape-rendering="crispEdges"/><rect fill="#1e1e1e" x="2293.6" y="221.1" width="12.2" height="24.65" shape-rendering="crispEdges"/><rect fill="#1e1e1e" x="0" y="245.5" width="12.2" height="24.65" shape-rendering="crispEdges"/><rect fill="#1e1e1e" x="12.2" y="245.5" width="353.8" height="24.65" shape-rendering="crispEdges"/><rect fill="#1e1e1e" x="366" y="245.5" width="341.6" height="24.65" shape-rendering="crispEdges"/><rect fill="#1e1e1e" x="707.6" y="245.5" width="36.6" height="24.65" shape-rendering="crispEdges"/><rect fill="#1e1e1e" x="744.2" y="245.5" width="1146.8" height="24.65" shape-rendering="crispEdges"/><rect fill="#1e1e1e" x="1891" y="245.5" width="36.6" height="24.65" shape-rendering="crispEdges"/><rect fill="#1e1e1e" x="1927.6" y="245.5" width="341.6" height="24.65" shape-rendering="crispEdges"/><rect fill="#14191f" x="2269.2" y="245.5" width="12.2" height="24.65" shape-rendering="crispEdges"/><rect fill="#14191f" x="2281.4" y="245.5" width="12.2" height="24.65" shape-rendering="crispEdges"/><rect fill="#1e1e1e" x="2293.6" y="245.5" width="12.2" height="24.65" shape-rendering="crispEdges"/><rect fill="#1e1e1e" x="0" y="269.9" width="12.2" height="24.65" shape-rendering="crispEdges"/><rect fill="#1e1e1e" x="12.2" y="269.9" width="353.8" height="24.65" shape-rendering="crispEdges"/><rect fill="#1e1e1e" x="366" y="269.9" width="341.6" height="24.65" shape-rendering="crispEdges"/><rect fill="#1e1e1e" x="707.6" y="269.9" width="36.6" height="24.65" shape-rendering="crispEdges"/><rect fill="#1e1e1e" x="744.2" y="269.9" width="1146.8" height="24.65" shape-rendering="crispEdges"/><rect fill="#1e1e1e" x="1891" y="269.9" width="36.6" height="24.65" shape-rendering="crispEdges"/><rect fill="#1e1e1e" x="1927.6" y="269.9" width="341.6" height="24.65" shape-rendering="crispEdges"/><rect fill="#14191f" x="2269.2" y="269.9" width="12.2" height="24.65" shape-rendering="crispEdges"/><rect fill="#14191f" x="2281.4" y="269.9" width="12.2" height="24.65" shape-rendering="crispEdges"/><rect fill="#1e1e1e" x="2293.6" y="269.9" width="12.2" height="24.65" shape-rendering="crispEdges"/><rect fill="#1e1e1e" x="0" y="294.3" width="12.2" height="24.65" shape-rendering="crispEdges"/><rect fill="#1e1e1e" x="12.2" y="294.3" width="353.8" height="24.65" shape-rendering="crispEdges"/><rect fill="#1e1e1e" x="366" y="294.3" width="341.6" height="24.65" shape-rendering="crispEdges"/><rect fill="#1e1e1e" x="707.6" y="294.3" width="36.6" height="24.65" shape-rendering="crispEdges"/><rect fill="#1e1e1e" x="744.2" y="294.3" width="1146.8" height="24.65" shape-rendering="crispEdges"/><rect fill="#1e1e1e" x="1891" y="294.3" width="36.6" height="24.65" shape-rendering="crispEdges"/><rect fill="#1e1e1e" x="1927.6" y="294.3" width="341.6" height="24.65" shape-rendering="crispEdges"/><rect fill="#14191f" x="2269.2" y="294.3" width="12.2" height="24.65" shape-rendering="crispEdges"/><rect fill="#14191f" x="2281.4" y="294.3" width="12.2" height="24.65" shape-rendering="crispEdges"/><rect fill="#1e1e1e" x="2293.6" y="294.3" width="12.2" height="24.65" shape-rendering="crispEdges"/><rect fill="#1e1e1e" x="0" y="318.7" width="12.2" height="24.65" shape-rendering="crispEdges"/><rect fill="#1e1e1e" x="12.2" y="318.7" width="353.8" height="24.65" shape-rendering="crispEdges"/><rect fill="#1e1e1e" x="366" y="318.7" width="341.6" height="24.65" shape-rendering="crispEdges"/><rect fill="#1e1e1e" x="707.6" y="318.7" width="1220" height="24.65" shape-rendering="crispEdges"/><rect fill="#1e1e1e" x="1927.6" y="318.7" width="341.6" height="24.65" shape-rendering="crispEdges"/><rect fill="#14191f" x="2269.2" y="318.7" width="12.2" height="24.65" shape-rendering="crispEdges"/><rect fill="#14191f" x="2281.4" y="318.7" width="12.2" height="24.65" shape-rendering="crispEdges"/><rect fill="#1e1e1e" x="2293.6" y="318.7" width="12.2" height="24.65" shape-rendering="crispEdges"/><rect fill="#1e1e1e" x="0" y="343.1" width="12.2" height="24.65" shape-rendering="crispEdges"/><rect fill="#1e1e1e" x="12.2" y="343.1" width="353.8" height="24.65" shape-rendering="crispEdges"/><rect fill="#1e1e1e" x="366" y="343.1" width="341.6" height="24.65" shape-rendering="crispEdges"/><rect fill="#1e1e1e" x="707.6" y="343.1" width="1220" height="24.65" shape-rendering="crispEdges"/><rect fill="#1e1e1e" x="1927.6" y="343.1" width="341.6" height="24.65" shape-rendering="crispEdges"/><rect fill="#14191f" x="2269.2" y="343.1" width="12.2" height="24.65" shape-rendering="crispEdges"/><rect fill="#14191f" x="2281.4" y="343.1" width="12.2" height="24.65" shape-rendering="crispEdges"/><rect fill="#1e1e1e" x="2293.6" y="343.1" width="12.2" height="24.65" shape-rendering="crispEdges"/><rect fill="#1e1e1e" x="0" y="367.5" width="12.2" height="24.65" shape-rendering="crispEdges"/><rect fill="#1e1e1e" x="12.2" y="367.5" width="353.8" height="24.65" shape-rendering="crispEdges"/><rect fill="#1e1e1e" x="366" y="367.5" width="1903.2" height="24.65" shape-rendering="crispEdges"/><rect fill="#14191f" x="2269.2" y="367.5" width="12.2" height="24.65" shape-rendering="crispEdges"/><rect fill="#14191f" x="2281.4" y="367.5" width="12.2" height="24.65" shape-rendering="crispEdges"/><rect fill="#1e1e1e" x="2293.6" y="367.5" width="12.2" height="24.65" shape-rendering="crispEdges"/><rect fill="#1e1e1e" x="0" y="391.9" width="12.2" height="24.65" shape-rendering="crispEdges"/><rect fill="#1e1e1e" x="12.2" y="391.9" width="353.8" height="24.65" shape-rendering="crispEdges"/><rect fill="#1e1e1e" x="366" y="391.9" width="1915.4" height="24.65" shape-rendering="crispEdges"/><rect fill="#1e1e1e" x="2281.4" y="391.9" width="24.4" height="24.65" shape-rendering="crispEdges"/><rect fill="#0053aa" x="0" y="416.3" width="97.6" height="24.65" shape-rendering="crispEdges"/><rect fill="#0178d4" x="97.6" y="416.3" width="109.8" height="24.65" shape-rendering="crispEdges"/><rect fill="#0053aa" x="207.4" y="416.3" width="97.6" height="24.65" shape-rendering="crispEdges"/><rect fill="#0178d4" x="305" y="416.3" width="219.6" height="24.65" shape-rendering="crispEdges"/><rect fill="#fea62b" x="524.6" y="416.3" width="97.6" height="24.65" shape-rendering="crispEdges"/><rect fill="#0065be" x="622.2" y="416.3" width="146.4" height="24.65" shape-rendering="crispEdges"/><rect fill="#0053aa" x="768.6" y="416.3" width="48.8" height="24.65" shape-rendering="crispEdges"/><rect fill="#0178d4" x="817.4" y="416.3" width="85.4" height="24.65" shape-rendering="crispEdges"/><rect fill="#0053aa" x="902.8" y="416.3" width="97.6" height="24.65" shape-rendering="crispEdges"/><rect fill="#0178d4" x="1000.4" y="416.3" width="73.2" height="24.65" shape-rendering="crispEdges"/><rect fill="#0178d4" x="1073.6" y="416.3" width="1232.2" height="24.65" shape-rendering="crispEdges"/>
    <g class="terminal-2231160305-matrix">
    <text class="terminal-2231160305-r2" x="12.2" y="20" textLength="12.2" clip-path="url(#terminal-2231160305-line-0)">⭘</text><text class="terminal-2231160305-r2" x="1061.4" y="20" textLength="146.4" clip-path="url(#terminal-2231160305-line-0)">Textual&#160;Demo</text><text class="terminal-2231160305-r1" x="2305.8" y="20" textLength="12.2" clip-path="url(#terminal-2231160305-line-0)">
</text><text class="terminal-2231160305-r1" x="2305.8" y="44.4" textLength="12.2" clip-path="url(#terminal-2231160305-line-1)">
</text><text class="terminal-2231160305-r4" x="2281.4" y="68.8" textLength="24.4" clip-path="url(#terminal-2231160305-line-2)">▂▂</text><text class="terminal-2231160305-r1" x="2305.8" y="68.8" textLength="12.2" clip-path="url(#terminal-2231160305-line-2)">
</text><text class="terminal-2231160305-r5" x="170.8" y="93.2" textLength="36.6" clip-path="url(#terminal-2231160305-line-3)">TOP</text><text class="terminal-2231160305-r6" x="707.6" y="93.2" textLength="12.2" clip-path="url(#terminal-2231160305-line-3)">▁</text><text class="terminal-2231160305-r6" x="719.8" y="93.2" textLength="1195.6" clip-path="url(#terminal-2231160305-line-3)">▁▁▁▁▁▁▁▁▁▁▁▁▁▁▁▁▁▁▁▁▁▁▁▁▁▁▁▁▁▁▁▁▁▁▁▁▁▁▁▁▁▁▁▁▁▁▁▁▁▁▁▁▁▁▁▁▁▁▁▁▁▁▁▁▁▁▁▁▁▁▁▁▁▁▁▁▁▁▁▁▁▁▁▁▁▁▁▁▁▁▁▁▁▁▁▁▁▁</text><text class="terminal-2231160305-r6" x="1915.4" y="93.2" textLength="12.2" clip-path="url(#terminal-2231160305-line-3)">▁</text><text class="terminal-2231160305-r1" x="2305.8" y="93.2" textLength="12.2" clip-path="url(#terminal-2231160305-line-3)">
</text><text class="terminal-2231160305-r6" x="707.6" y="117.6" textLength="12.2" clip-path="url(#terminal-2231160305-line-4)">▎</text><text class="terminal-2231160305-r7" x="1915.4" y="117.6" textLength="12.2" clip-path="url(#terminal-2231160305-line-4)">▊</text><text class="terminal-2231160305-r1" x="2305.8" y="117.6" textLength="12.2" clip-path="url(#terminal-2231160305-line-4)">
</text><text class="terminal-2231160305-r6" x="707.6" y="142" textLength="12.2" clip-path="url(#terminal-2231160305-line-5)">▎</text><text class="terminal-2231160305-r7" x="1915.4" y="142" textLength="12.2" clip-path="url(#terminal-2231160305-line-5)">▊</text><text class="terminal-2231160305-r1" x="2305.8" y="142" textLength="12.2" clip-path="url(#terminal-2231160305-line-5)">
</text><text class="terminal-2231160305-r6" x="707.6" y="166.4" textLength="12.2" clip-path="url(#terminal-2231160305-line-6)">▎</text><text class="terminal-2231160305-r8" x="1244.4" y="166.4" textLength="146.4" clip-path="url(#terminal-2231160305-line-6)">Textual&#160;Demo</text><text class="terminal-2231160305-r7" x="1915.4" y="166.4" textLength="12.2" clip-path="url(#terminal-2231160305-line-6)">▊</text><text class="terminal-2231160305-r1" x="2305.8" y="166.4" textLength="12.2" clip-path="url(#terminal-2231160305-line-6)">
</text><text class="terminal-2231160305-r5" x="146.4" y="190.8" textLength="85.4" clip-path="url(#terminal-2231160305-line-7)">Widgets</text><text class="terminal-2231160305-r6" x="707.6" y="190.8" textLength="12.2" clip-path="url(#terminal-2231160305-line-7)">▎</text><text class="terminal-2231160305-r7" x="1915.4" y="190.8" textLength="12.2" clip-path="url(#terminal-2231160305-line-7)">▊</text><text class="terminal-2231160305-r1" x="2305.8" y="190.8" textLength="12.2" clip-path="url(#terminal-2231160305-line-7)">
</text><text class="terminal-2231160305-r6" x="0" y="215.2" textLength="12.2" clip-path="url(#terminal-2231160305-line-8)">▔</text><text class="terminal-2231160305-r6" x="12.2" y="215.2" textLength="353.8" clip-path="url(#terminal-2231160305-line-8)">▔▔▔▔▔▔▔▔▔▔▔▔▔▔▔▔▔▔▔▔▔▔▔▔▔▔▔▔▔</text><text class="terminal-2231160305-r6" x="366" y="215.2" textLength="341.6" clip-path="url(#terminal-2231160305-line-8)">▔▔▔▔▔▔▔▔▔▔▔▔▔▔▔▔▔▔▔▔▔▔▔▔▔▔▔▔</text><text class="terminal-2231160305-r6" x="707.6" y="215.2" textLength="36.6" clip-path="url(#terminal-2231160305-line-8)">▔▔▔</text><text class="terminal-2231160305-r6" x="744.2" y="215.2" textLength="1146.8" clip-path="url(#terminal-2231160305-line-8)">▔▔▔▔▔▔▔▔▔▔▔▔▔▔▔▔▔▔▔▔▔▔▔▔▔▔▔▔▔▔▔▔▔▔▔▔▔▔▔▔▔▔▔▔▔▔▔▔▔▔▔▔▔▔▔▔▔▔▔▔▔▔▔▔▔▔▔▔▔▔▔▔▔▔▔▔▔▔▔▔▔▔▔▔▔▔▔▔▔▔▔▔▔▔</text><text class="terminal-2231160305-r6" x="1891" y="215.2" textLength="36.6" clip-path="url(#terminal-2231160305-line-8)">▔▔▔</text><text class="terminal-2231160305-r6" x="1927.6" y="215.2" textLength="353.8" clip-path="url(#terminal-2231160305-line-8)">▔▔▔▔▔▔▔▔▔▔▔▔▔▔▔▔▔▔▔▔▔▔▔▔▔▔▔▔▔</text><text class="terminal-2231160305-r6" x="2281.4" y="215.2" textLength="24.4" clip-path="url(#terminal-2231160305-line-8)">▔▔</text><text class="terminal-2231160305-r1" x="2305.8" y="215.2" textLength="12.2" clip-path="url(#terminal-2231160305-line-8)">
</text><text class="terminal-2231160305-r3" x="12.2" y="239.6" textLength="329.4" clip-path="url(#terminal-2231160305-line-9)">Textual&#160;Demo&#160;app&#160;is&#160;running</text><text class="terminal-2231160305-r1" x="2305.8" y="239.6" textLength="12.2" clip-path="url(#terminal-2231160305-line-9)">
</text><text class="terminal-2231160305-r1" x="2305.8" y="264" textLength="12.2" clip-path="url(#terminal-2231160305-line-10)">
</text><text class="terminal-2231160305-r1" x="2305.8" y="288.4" textLength="12.2" clip-path="url(#terminal-2231160305-line-11)">
</text><text class="terminal-2231160305-r1" x="2305.8" y="312.8" textLength="12.2" clip-path="url(#terminal-2231160305-line-12)">
</text><text class="terminal-2231160305-r1" x="2305.8" y="337.2" textLength="12.2" clip-path="url(#terminal-2231160305-line-13)">
</text><text class="terminal-2231160305-r1" x="2305.8" y="361.6" textLength="12.2" clip-path="url(#terminal-2231160305-line-14)">
</text><text class="terminal-2231160305-r1" x="2305.8" y="386" textLength="12.2" clip-path="url(#terminal-2231160305-line-15)">
</text><text class="terminal-2231160305-r1" x="2305.8" y="410.4" textLength="12.2" clip-path="url(#terminal-2231160305-line-16)">
</text><text class="terminal-2231160305-r9" x="0" y="434.8" textLength="97.6" clip-path="url(#terminal-2231160305-line-17)">&#160;CTRL+B&#160;</text><text class="terminal-2231160305-r10" x="97.6" y="434.8" textLength="109.8" clip-path="url(#terminal-2231160305-line-17)">&#160;Sidebar&#160;</text><text class="terminal-2231160305-r9" x="207.4" y="434.8" textLength="97.6" clip-path="url(#terminal-2231160305-line-17)">&#160;CTRL+T&#160;</text><text class="terminal-2231160305-r10" x="305" y="434.8" textLength="219.6" clip-path="url(#terminal-2231160305-line-17)">&#160;Toggle&#160;Dark&#160;mode&#160;</text><text class="terminal-2231160305-r11" x="524.6" y="434.8" textLength="97.6" clip-path="url(#terminal-2231160305-line-17)">&#160;CTRL+S&#160;</text><text class="terminal-2231160305-r12" x="622.2" y="434.8" textLength="146.4" clip-path="url(#terminal-2231160305-line-17)">&#160;Screenshot&#160;</text><text class="terminal-2231160305-r9" x="768.6" y="434.8" textLength="48.8" clip-path="url(#terminal-2231160305-line-17)">&#160;F1&#160;</text><text class="terminal-2231160305-r10" x="817.4" y="434.8" textLength="85.4" clip-path="url(#terminal-2231160305-line-17)">&#160;Notes&#160;</text><text class="terminal-2231160305-r9" x="902.8" y="434.8" textLength="97.6" clip-path="url(#terminal-2231160305-line-17)">&#160;CTRL+Q&#160;</text><text class="terminal-2231160305-r10" x="1000.4" y="434.8" textLength="73.2" clip-path="url(#terminal-2231160305-line-17)">&#160;Quit&#160;</text>
    </g>
    </g>
</svg>
